<svg width="40" height="40" viewBox="0 0 40 40" fill="none" xmlns="http://www.w3.org/2000/svg">
<g id="Group 632">
<circle id="Ellipse 39" cx="20" cy="20" r="20" fill="#D3D9E8"/>
<g id="Group 755">
<rect id="Rectangle 172" x="23.1172" y="20.7903" width="14.0676" height="6.10894" rx="3.05447" transform="rotate(45.3779 23.1172 20.7903)" fill="white"/>
<path id="Vector 28" d="M26.5375 27.2782L23.5583 30.1581M23.5583 30.1581L21.1825 27.8299C20.5698 27.2294 20.0833 26.4852 20 25.6314C19.7919 23.4976 20.6063 21.0484 25.0148 22.4452C25.2261 22.5121 25.443 22.5809 25.5691 22.6219C25.7419 22.6781 25.515 22.8922 25.6769 22.9748V22.9748M23.5583 30.1581L25.9748 32.8064M25.6769 22.9748V19.8632V19.3666M25.6769 22.9748L30.7299 28.442C31.3857 29.1516 31.8978 30.0426 31.8151 31.0053C31.644 33.0001 30.209 33.7763 28.836 33.9843C27.8222 34.1379 26.8617 33.625 26.1083 32.9296L25.9748 32.8064M25.6769 19.3666L22.4118 13.5558C21.9915 12.8079 21.7708 11.9644 21.7708 11.1065V9.96542M25.6769 19.3666H8M21.7708 9.96542V9.96542C22.4532 9.51045 22.8632 8.74449 22.8632 7.92427V6.56678C22.8632 6.04292 22.6014 5.55372 22.1655 5.26314V5.26314C21.9081 5.09156 21.6057 5 21.2964 5H12.8231C12.5074 5 12.2003 5.10329 11.9488 5.29411V5.29411C11.5883 5.56761 11.3765 5.99407 11.3765 6.4466V8.20724C11.3765 8.86669 11.6385 9.49912 12.1047 9.96542V9.96542M21.7708 9.96542H12.1047M12.1047 9.96542V12.1171M12.1047 12.1171H18.0633M12.1047 12.1171L8 19.3666M8 19.3666V30.3568M25.9748 32.8064V32.8064C25.1895 33.5705 24.1369 33.9981 23.0411 33.9981H10.2945C9.77348 33.9981 9.26798 33.8208 8.86113 33.4953V33.4953C8.31685 33.0598 8 32.4006 8 31.7036V30.3568M8 30.3568H18.7253" stroke="black"/>
<path id="Vector 29" d="M9.98438 21.3322H15.9424M21.9004 21.3322H15.9424M15.9424 21.3322V27.2433M15.9424 21.3322V15.3273" stroke="black"/>
</g>
</g>
</svg>
