<svg width="40" height="40" viewBox="0 0 40 40" fill="none" xmlns="http://www.w3.org/2000/svg">
<g id="Group 632">
<circle id="Ellipse 39" cx="20" cy="20" r="20" fill="#D3D9E8"/>
<g id="Group 757">
<path id="Vector 34" d="M15.2185 14.5173C13.4089 16.1143 10.9599 15.0851 9.68235 14.5173C6.16801 15.582 5.81416 18.9533 6.06257 20.5858H19.5835C18.945 15.582 16.2831 14.6948 15.2185 14.5173Z" stroke="black" stroke-width="0.8"/>
<path id="Vector 35" d="M22.5669 28.1917C19.7068 29.466 19.4177 32.4835 19.6485 34.0001H33.1694C32.7129 30.4217 31.2214 28.9486 30.0194 28.3348M22.5669 28.1917C22.7854 28.0944 23.0189 28.0072 23.2683 27.9316C24.0036 28.2585 25.127 28.7381 26.2932 28.7819M22.5669 28.1917L25.0156 30.5932L26.2932 28.7819M26.2932 28.7819C27.1531 28.8142 28.0364 28.6094 28.8044 27.9316C29.1077 27.9822 29.5406 28.0903 30.0194 28.3348M26.2932 28.7819L27.2514 30.5932L30.0194 28.3348" stroke="black" stroke-width="0.8"/>
<path id="Vector 36" d="M28.8438 31.6578H29.8019M30.7601 31.6578H29.8019M29.8019 31.6578V30.4866V32.7224" stroke="black" stroke-width="0.8"/>
<circle id="Ellipse 53" cx="12.5593" cy="9.83271" r="3.83271" stroke="black" stroke-width="0.8"/>
<circle id="Ellipse 54" cx="26.1804" cy="23.2473" r="3.83271" stroke="black" stroke-width="0.8"/>
<path id="Vector 37" d="M22.2461 7.38387V9.40668C25.5678 9.40668 27.8177 12.4587 28.5275 13.9846H27.1434L30.1244 18.2432L32.786 13.9846H31.1891C29.0598 9.0447 24.3399 7.52582 22.2461 7.38387Z" fill="black"/>
<path id="Vector 38" d="M16.6914 33.6142L16.7236 31.5917C13.4023 31.5389 11.2012 28.4515 10.5158 26.9144L11.8996 26.9364L8.98671 22.631L6.25774 26.8467L7.8545 26.8721C9.90497 31.8453 14.6001 33.439 16.6914 33.6142Z" fill="black"/>
</g>
</g>
</svg>
