<svg width="40" height="40" viewBox="0 0 40 40" fill="none" xmlns="http://www.w3.org/2000/svg">
<circle cx="20" cy="20" r="20" fill="#D3D9E8"/>
<path d="M23.4551 10.0983L24.5752 11.2183L29.9756 16.5409C30.0671 16.631 30.1904 16.6816 30.3188 16.6816C30.4466 16.6816 30.5693 16.6316 30.6607 16.5422L30.8622 16.3451C31.3327 15.8851 31.3362 15.1292 30.8701 14.6648L25.3544 9.1697C24.9129 8.72981 24.209 8.69854 23.7302 9.09754L23.4915 9.29641C23.3676 9.39967 23.296 9.55264 23.296 9.71395C23.296 9.8581 23.3532 9.99634 23.4551 10.0983Z" fill="black"/>
<path d="M6 34.0575L10.502 29.506C10.6935 29.3124 10.6893 28.9995 10.4927 28.8111V28.8111C10.3279 28.6532 10.2947 28.402 10.4128 28.2067L11.1679 26.9579C11.4371 26.5127 11.476 25.9653 11.2725 25.4865L11.2122 25.3447C11.1669 25.238 11.1435 25.1232 11.1435 25.0073V25.0073C11.1435 24.7785 11.2344 24.5591 11.3961 24.3973L24.5752 11.2183M24.5752 11.2183L23.4551 10.0983C23.3532 9.99634 23.296 9.8581 23.296 9.71395V9.71395C23.296 9.55264 23.3676 9.39967 23.4915 9.29641L23.7302 9.09754C24.209 8.69854 24.9129 8.72981 25.3544 9.1697L30.8701 14.6648C31.3362 15.1292 31.3327 15.8851 30.8622 16.3451L30.6607 16.5422C30.5693 16.6316 30.4466 16.6816 30.3188 16.6816V16.6816C30.1904 16.6816 30.0671 16.631 29.9756 16.5409L24.5752 11.2183Z" stroke="black" stroke-width="0.5"/>
<path d="M28.8023 15.3943L15.5441 28.753C15.4736 28.8241 15.3895 28.8804 15.2969 28.9185V28.9185C15.098 29.0004 14.8736 28.9932 14.6804 28.8986L14.4201 28.7713C13.9913 28.5614 13.485 28.5854 13.0779 28.8347L12.4948 29.1919C11.9566 29.5215 11.2701 29.4819 10.7734 29.0925V29.0925" stroke="black" stroke-width="0.5"/>
<path d="M17.2617 18.5256C17.3594 18.9387 17.4616 19.8396 18.5143 20.3592C19.567 20.8789 19.6336 21.8516 20.3665 22.2647C21.0993 22.6778 21.6457 22.683 21.4591 22.7763" stroke="black" stroke-width="0.5"/>
<path d="M13.9108 28.5386L13.0515 28.313C12.1804 28.0842 11.545 27.3355 11.4609 26.4388V26.4388" stroke="black" stroke-width="0.2"/>
<path d="M22.0547 19.6132L23.3339 20.911" stroke="black" stroke-width="0.5"/>
<path d="M22.9492 18.5737L24.2951 19.9247" stroke="black" stroke-width="0.5"/>
<path d="M21.8672 13.9333L26.0672 18.1333" stroke="black" stroke-width="0.5"/>
<path d="M22.8008 13.0001L26.9892 17.2065" stroke="black" stroke-width="0.5"/>
<path d="M31.9581 11.3598L31.1862 10.6053L29.6162 8.92632L29.3234 8.63123C28.6017 7.90391 27.8905 6.65726 28.7893 6.16537C28.9022 6.1036 29.0227 6.05974 29.1433 6.03278C29.6321 5.92351 30.0557 6.28609 30.4006 6.64929L33.1654 9.56048C33.6526 10.0735 34.2252 10.7694 33.8625 11.3768C33.6657 11.7064 33.2878 11.8789 32.9285 11.8931C32.5441 11.9083 32.2332 11.6288 31.9581 11.3598Z" fill="black"/>
<path d="M28.9476 12.7292L31.1862 10.6053M31.1862 10.6053L31.9581 11.3598C32.2332 11.6288 32.5441 11.9083 32.9285 11.8931C33.2878 11.8789 33.6657 11.7064 33.8625 11.3768C34.2252 10.7694 33.6526 10.0735 33.1654 9.56048L30.4006 6.64929C30.0557 6.28609 29.6321 5.92351 29.1433 6.03278C29.0227 6.05974 28.9022 6.1036 28.7893 6.16537C27.8905 6.65726 28.6017 7.90391 29.3234 8.63123L29.6162 8.92632M31.1862 10.6053L29.6162 8.92632M27.3086 11.1035L29.6162 8.92632" stroke="black" stroke-width="0.5"/>
</svg>
