<svg width="40" height="40" viewBox="0 0 40 40" fill="none" xmlns="http://www.w3.org/2000/svg">
<circle cx="20" cy="20" r="20" fill="#D3D9E8"/>
<path d="M25.1974 28.2144C25.4915 28.2679 26.1279 28.2465 26.3204 27.7331C26.561 27.0914 26.8017 25.7278 27.2027 25.6476C27.6038 25.5674 28.8872 24.6048 28.8872 24.3642C28.8872 24.1235 28.4862 22.5994 28.8872 22.1182C29.2883 21.6369 30.0102 20.0326 29.7696 19.7117C29.5289 19.3909 28.8872 18.3481 28.8872 17.7866C28.8872 17.2251 29.2883 16.3428 28.8872 15.9417C28.4862 15.5406 27.2027 15.0593 27.2027 14.7385C27.2027 14.4176 26.3204 13.5353 26.3204 13.1342C26.3204 12.7331 24.9567 12.0914 24.3952 12.1716C23.946 12.2358 23.1386 11.4497 22.791 11.0487C22.4434 10.8347 21.5878 10.5353 20.946 11.0487C20.3043 11.562 19.2348 11.0487 18.7803 10.7278C18.3792 10.5674 17.4487 10.4551 16.9354 11.2893C16.422 12.1235 15.8658 12.2251 15.6519 12.1716C15.1172 12.1716 13.9995 12.3641 13.807 13.1342C13.6145 13.9043 13.1386 14.5246 12.9247 14.7385C12.3097 15.0326 11.1279 15.7492 11.3204 16.2626C11.561 16.9043 11.6415 18.1075 11.3204 18.669C10.9993 19.2305 10.0367 19.5513 10.3575 20.1128C10.6784 20.6743 10.8385 21.4764 11.0794 22.1182C11.3204 22.7599 11.3204 23.4016 11.3204 24.3642C11.3204 25.1342 12.1758 25.5406 12.6035 25.6476C12.8441 25.7545 13.3415 26.0487 13.4056 26.3695C13.4859 26.7706 13.4859 27.8936 14.288 28.2144C15.0901 28.5353 15.6516 27.7331 16.0527 28.2144C16.4538 28.6957 17.4966 29.6583 17.8976 29.7385C18.2987 29.8187 19.6623 29.0166 20.0634 29.177C20.4645 29.3374 21.5875 29.7385 21.9885 29.7385C22.3896 29.7385 23.5928 28.6957 23.5928 28.6957" stroke="black" stroke-linejoin="round"/>
<path d="M29.8672 19.9198H32.1934" stroke="black"/>
<path d="M26.6016 13.4L27.8016 12.2" stroke="black"/>
<path d="M28.582 11.4171L29.7852 10.2941" stroke="black"/>
<path d="M20 10.9358V7.9679" stroke="black"/>
<path d="M11.3359 11.4171L13.3413 13.3422" stroke="black"/>
<path d="M7.88672 20.1604H10.2931" stroke="black"/>
<path d="M10.293 29.7861L13.3411 26.6578" stroke="black"/>
<path d="M20 32.1925V28.9839" stroke="black"/>
<circle cx="17.0292" cy="24.7326" r="1.12299" stroke="black"/>
<circle cx="24.573" cy="20.8824" r="1.60428" stroke="black"/>
<circle cx="17.0309" cy="16.3904" r="2.08556" stroke="black"/>
<circle cx="23.6076" cy="15.2674" r="1.28342" stroke="black"/>
<circle cx="30.8267" cy="9.17108" r="1.44385" stroke="black"/>
<circle cx="20.0806" cy="6.44385" r="1.44385" stroke="black"/>
<circle cx="33.5571" cy="19.9197" r="1.44385" stroke="black"/>
<circle cx="31.311" cy="31.1498" r="1.44385" stroke="black"/>
<circle cx="20.0806" cy="33.5562" r="1.44385" stroke="black"/>
<circle cx="9.17041" cy="30.8289" r="1.44385" stroke="black"/>
<circle cx="10.6157" cy="10.615" r="1.44385" stroke="black"/>
<circle cx="6.44385" cy="19.9197" r="1.44385" stroke="black"/>
<path d="M26.7344 26.6578L30.5044 30.4278" stroke="black"/>
</svg>
