<svg width="40" height="40" viewBox="0 0 40 40" fill="none" xmlns="http://www.w3.org/2000/svg">
<circle cx="20" cy="20" r="20" fill="#D3D9E8"/>
<mask id="mask0_1022_2269" style="mask-type:luminance" maskUnits="userSpaceOnUse" x="10" y="9" width="21" height="21">
<path d="M29.875 19.5V11.6875C29.875 11.2731 29.7104 10.8757 29.4174 10.5826C29.1243 10.2896 28.7269 10.125 28.3125 10.125H12.6875C12.2731 10.125 11.8757 10.2896 11.5826 10.5826C11.2896 10.8757 11.125 11.2731 11.125 11.6875V27.3125C11.125 27.7269 11.2896 28.1243 11.5826 28.4174C11.8757 28.7104 12.2731 28.875 12.6875 28.875H20.5" stroke="white" stroke-width="1.5" stroke-linecap="round" stroke-linejoin="round"/>
<path d="M24.668 26.7917C26.3939 26.7917 27.793 25.3926 27.793 23.6667C27.793 21.9408 26.3939 20.5417 24.668 20.5417C22.9421 20.5417 21.543 21.9408 21.543 23.6667C21.543 25.3926 22.9421 26.7917 24.668 26.7917Z" fill="#555555" stroke="white" stroke-width="1.5"/>
<path d="M27.2721 25.75L29.8763 27.8333M15.293 15.3333H25.7096M15.293 19.5H19.4596" stroke="white" stroke-width="1.5" stroke-linecap="round" stroke-linejoin="round"/>
</mask>
<g mask="url(#mask0_1022_2269)">
<path d="M8 7H33V32H8V7Z" fill="black"/>
</g>
</svg>
