<svg width="40" height="40" viewBox="0 0 40 40" fill="none" xmlns="http://www.w3.org/2000/svg">
<circle cx="20" cy="20" r="20" fill="#D3D9E8"/>
<path d="M11.25 31.25H28.75M12.5 27.5H15M13.75 27.5V31.25M18.125 20.625L16.25 22.5M26.25 8.75L30 12.5M20 31.25C21.5588 31.2501 23.0789 30.7646 24.3489 29.8609C25.619 28.9572 26.5759 27.6802 27.0867 26.2075C27.5974 24.7347 27.6366 23.1395 27.1988 21.6435C26.761 20.1474 25.8679 18.825 24.6438 17.86M16.25 18.75L20 22.5L27.5 15L23.75 11.25L16.25 18.75Z" stroke="black" stroke-width="2" stroke-linecap="round" stroke-linejoin="round"/>
<path d="M27 26.5H18.5" stroke="black" stroke-width="1.5"/>
<path d="M29 12L27 14L25 12L27 10L29 12Z" stroke="black" stroke-width="1.5"/>
<path d="M23 18C22.4477 17.4477 22.4477 16.5523 23 16C23.5523 15.4477 24.4477 15.4477 25 16C25.5523 16.5523 25.5523 17.4477 25 18C24.4477 18.5523 23.5523 18.5523 23 18Z" fill="#D9D9D9" stroke="black"/>
</svg>
