<svg width="40" height="40" viewBox="0 0 40 40" fill="none" xmlns="http://www.w3.org/2000/svg">
<g id="Group 632">
<circle id="Ellipse 39" cx="20" cy="20" r="20" fill="#D3D9E8"/>
<path id="Vector 30" d="M17.77 21.8221C17.2938 21.2939 16.6147 20.4526 16.0521 19.5712C15.2161 18.2615 13.1636 16.2654 13.3774 14.7263V14.7263V13.6C13.3774 13.0713 13.806 12.6426 14.3347 12.6426V12.6426M17.77 21.8221C18.6523 22.2163 20.8899 22.7119 22.7821 21.5405M17.77 21.8221L16.8485 23.3426M14.3347 12.6426V13.4311M14.3347 12.6426V8.6631C14.3347 8.20221 14.3867 7.73876 14.5707 7.31616C15.0205 6.28274 15.9324 5.00913 17.3209 5.00005C17.6208 4.99809 17.9209 5.04002 18.2208 5.04002H23.5142C24.3851 5.04002 25.091 5.74599 25.091 6.61685V6.61685M25.091 6.61685C24.5091 7.57422 23.3453 8.9258 21.2053 8.9258H17.77C17.3946 8.96334 16.6437 9.15106 16.6437 9.60158V10.7279M25.091 6.61685C25.504 6.71072 26.3412 7.11245 26.3863 7.96844V12.4737M26.3863 13.4311V12.4737M26.3863 12.4737V12.4737C26.8528 12.4737 27.231 12.8519 27.231 13.3184V15.6238C27.231 15.8097 27.194 15.9716 27.0794 16.118V16.118C26.5715 16.7666 25.1025 18.0955 24.8166 18.8681C24.4493 19.8602 23.8166 20.9001 22.7821 21.5405M22.7821 21.5405L23.5705 23.6805M23.5705 23.6805L21.2015 28.6602C20.944 29.2016 20.8008 29.7903 20.7811 30.3895L20.6512 34.329C20.6461 34.4833 20.5196 34.6058 20.3652 34.6058V34.6058C20.2071 34.6058 20.0789 34.4776 20.0789 34.3196V30.4964C20.0789 29.8295 19.9167 29.1727 19.6061 28.5826L16.8485 23.3426M23.5705 23.6805C24.1961 23.8473 24.953 24.0681 25.7668 24.3304M16.8485 23.3426V23.3426C16.7182 23.5576 16.5022 23.7062 16.2556 23.7549C15.7211 23.8605 15.2126 23.9744 14.7289 24.0953M14.7289 24.0953L15.4522 28.1763C15.5317 28.6248 15.7308 29.0435 16.0285 29.3883L16.3842 29.8C16.5516 29.9939 16.6437 30.2414 16.6437 30.4976V31.4239C16.6437 31.5017 16.5806 31.5647 16.5029 31.5647V31.5647C16.4251 31.5647 16.3621 31.6278 16.3621 31.7055V34.6058M14.7289 24.0953C13.9083 24.3005 13.1592 24.5262 12.4763 24.7668M12.4763 24.7668C7.59085 26.4878 6.09069 28.9737 6 30.2132V30.2132C6 32.8569 8.14314 35 10.7868 35H30.6518C32.7284 35 34.3972 33.2894 34.346 31.2135V31.2135C34.3333 30.7024 34.2148 30.1994 33.9977 29.7364L33.6879 29.0754C33.551 28.7833 33.4583 28.4676 33.2822 28.1974C32.5666 27.0992 30.2934 25.9841 27.9631 25.0988M12.4763 24.7668L11.973 26.1494C11.8212 26.5665 11.7255 27.002 11.6887 27.4445L11.5189 29.481M11.5189 29.481V29.481C10.2437 29.481 9.21 30.5148 9.21 31.79V33.5921M11.5189 29.481V29.481C12.8874 29.481 13.9968 30.5904 13.9968 31.9589V33.5921M25.7668 24.3304L25.2471 27.9428C25.1828 28.3899 24.9583 28.7983 24.6154 29.0923L24.3688 29.3036C24.1123 29.5235 23.9647 29.8444 23.9647 30.1822V31.086C23.9647 31.226 24.0782 31.3395 24.2181 31.3395V31.3395C24.3581 31.3395 24.4716 31.4529 24.4716 31.5929V34.6058M25.7668 24.3304C26.4724 24.5579 27.2206 24.8167 27.9631 25.0988M27.9631 25.0988L28.542 27.0343C28.681 27.4991 28.7516 27.9817 28.7516 28.4669V28.8616M28.7516 28.8616V28.8616C27.8496 28.8616 27.1184 29.5928 27.1184 30.4947V30.9453M28.7516 28.8616V28.8616C29.7157 28.8616 30.4974 29.6432 30.4974 30.6074V30.9453" stroke="black" stroke-width="0.8"/>
</g>
</svg>
