<svg width="22" height="22" viewBox="0 0 22 22" fill="none" xmlns="http://www.w3.org/2000/svg">
<path d="M4.92773 14.5362L7.78501 17.3877L17.0712 7.40723C17.0712 5.41113 15.1663 4.91211 14.2139 4.91211L4.92773 14.5362Z" fill="#0CB208" stroke="#0CB208"/>
<path d="M8.53157 18.0796L7.73142 17.2811L3.87386 13.4867C3.80844 13.4224 3.72036 13.3863 3.6286 13.3863C3.53733 13.3863 3.44967 13.422 3.38434 13.4858L3.24106 13.6256C2.90485 13.9537 2.90232 14.4935 3.23544 14.8247L7.17532 18.742C7.49059 19.0555 7.99253 19.0778 8.33435 18.7935L8.50566 18.651C8.59405 18.5775 8.64518 18.4685 8.64518 18.3535C8.64518 18.2507 8.60431 18.1522 8.53157 18.0796Z" fill="black"/>
<path d="M21 0.999179L17.7842 4.24384C17.6475 4.38179 17.6505 4.60505 17.7908 4.7393V4.7393C17.9085 4.85183 17.9322 5.031 17.8478 5.17024L17.3084 6.06051C17.1162 6.37775 17.0884 6.76809 17.2338 7.10935L17.2768 7.21047C17.3092 7.28654 17.3259 7.36836 17.3259 7.45103V7.45103C17.3259 7.61409 17.2611 7.77044 17.1456 7.88563L7.73142 17.2811M7.73142 17.2811L8.53157 18.0796C8.60431 18.1522 8.64518 18.2507 8.64518 18.3535V18.3535C8.64518 18.4685 8.59405 18.5775 8.50566 18.651L8.33435 18.7935C7.99253 19.0778 7.49059 19.0555 7.17532 18.742L3.23544 14.8247C2.90233 14.4935 2.90485 13.9537 3.24106 13.6256L3.38434 13.4858C3.44967 13.422 3.53733 13.3863 3.6286 13.3863V13.3863C3.72036 13.3863 3.80845 13.4224 3.87386 13.4867L7.73142 17.2811Z" stroke="black" stroke-width="0.5"/>
<path d="M4.71152 14.3027L14.1819 4.77952C14.2324 4.72875 14.2925 4.68858 14.3588 4.66137V4.66137C14.5008 4.603 14.661 4.60817 14.799 4.67555L14.9849 4.76638C15.2913 4.91601 15.6529 4.89894 15.9438 4.72111L16.3604 4.46646C16.7449 4.23141 17.2349 4.25969 17.5898 4.53741V4.53741" stroke="black" stroke-width="0.5"/>
<path d="M12.9551 12.0684C12.8853 11.7739 12.8123 11.1316 12.0604 10.7612C11.3084 10.3907 11.2608 9.69723 10.7373 9.40275C10.2138 9.10827 9.82354 9.10456 9.9568 9.03807" stroke="black" stroke-width="0.5"/>
<path d="M15.3496 4.93075L15.9653 5.09213C16.5864 5.25491 17.0396 5.78849 17.0996 6.42773V6.42773" stroke="black" stroke-width="0.2"/>
<path d="M9.5332 11.2949L8.61944 10.3698" stroke="black" stroke-width="0.5"/>
<path d="M8.89258 12.0371L7.93122 11.074" stroke="black" stroke-width="0.5"/>
<path d="M9.66406 15.3496L6.66392 12.3555" stroke="black" stroke-width="0.5"/>
<path d="M8.99805 16.0059L6.00616 13.0071" stroke="black" stroke-width="0.5"/>
<path d="M2.57655 17.2926L3.00946 17.715L4.1309 18.9119L4.2106 18.9921C4.81036 19.5953 5.27948 20.8148 4.44497 20.9797C4.03767 21.0601 3.79673 20.7728 3.51052 20.4721L1.8083 18.6832C1.32015 18.1702 0.723479 17.3408 1.30958 16.9434C1.39785 16.8835 1.49821 16.8419 1.60131 16.8186C1.97634 16.7337 2.30132 17.0241 2.57655 17.2926Z" fill="black"/>
<path d="M4.60854 16.2009L3.00946 17.715M3.00946 17.715L2.57655 17.2926C2.30132 17.0241 1.97634 16.7337 1.60131 16.8186C1.49821 16.8419 1.39785 16.8835 1.30958 16.9434C0.723479 17.3408 1.32015 18.1702 1.8083 18.6832L3.51052 20.4721C3.79673 20.7728 4.03767 21.0601 4.44497 20.9797V20.9797C5.27948 20.8148 4.81036 19.5953 4.2106 18.9921L4.1309 18.9119M3.00946 17.715L4.1309 18.9119M5.7793 17.3598L4.1309 18.9119" stroke="black" stroke-width="0.5"/>
</svg>
