<svg width="15" height="20" viewBox="0 0 15 20" fill="none" xmlns="http://www.w3.org/2000/svg">
<path d="M11 16C10.45 16 9.979 15.804 9.587 15.412C9.195 15.02 8.99933 14.5493 9 14C9 13.45 9.196 12.979 9.588 12.587C9.98 12.195 10.4507 11.9993 11 12C11.55 12 12.021 12.196 12.413 12.588C12.805 12.98 13.0007 13.4507 13 14C13 14.55 12.804 15.021 12.412 15.413C12.02 15.805 11.5493 16.0007 11 16ZM7 20V19.425C7 18.6917 7.36667 18.104 8.1 17.662C8.83333 17.22 9.8 16.9993 11 17C12.2 17 13.1667 17.221 13.9 17.663C14.6333 18.105 15 18.6923 15 19.425V20H7ZM5 8C5.55 8 6.021 7.804 6.413 7.412C6.805 7.02 7.00067 6.54933 7 6C7 5.45 6.804 4.979 6.412 4.587C6.02 4.195 5.54933 3.99933 5 4C4.45 4 3.979 4.196 3.587 4.588C3.195 4.98 2.99933 5.45067 3 6C3 6.55 3.196 7.021 3.588 7.413C3.98 7.805 4.45067 8.00067 5 8ZM3 14C3 14.55 3.196 15.021 3.588 15.413C3.98 15.805 4.45067 16.0007 5 16C5.55 16 6.021 15.804 6.413 15.412C6.805 15.02 7.00067 14.5493 7 14C7 13.45 6.804 12.979 6.412 12.587C6.02 12.195 5.54933 11.9993 5 12C4.45 12 3.979 12.196 3.587 12.588C3.195 12.98 2.99933 13.4507 3 14ZM5 15C4.71667 15 4.479 14.904 4.287 14.712C4.095 14.52 3.99933 14.2827 4 14C4 13.7167 4.096 13.479 4.288 13.287C4.48 13.095 4.71733 12.9993 5 13C5.28333 13 5.521 13.096 5.713 13.288C5.905 13.48 6.00067 13.7173 6 14C6 14.2833 5.904 14.521 5.712 14.713C5.52 14.905 5.28267 15.0007 5 15ZM0 5C0 3.58333 0.479333 2.39567 1.438 1.437C2.39667 0.478334 3.584 -0.000665972 5 6.94927e-07C6.41667 6.94927e-07 7.60433 0.479334 8.563 1.438C9.52167 2.39667 10.0007 3.584 10 5V9C10 9.28333 9.904 9.521 9.712 9.713C9.52 9.905 9.28267 10.0007 9 10C8.71667 10 8.479 9.904 8.287 9.712C8.095 9.52 7.99933 9.28267 8 9V5C8 4.15 7.7 3.43733 7.1 2.862C6.5 2.28667 5.8 1.99933 5 2C4.2 2 3.5 2.28767 2.9 2.863C2.3 3.43833 2 4.15067 2 5V15C2 15.7 2.225 16.325 2.675 16.875C3.125 17.425 3.675 17.775 4.325 17.925C4.55833 17.975 4.75433 18.0917 4.913 18.275C5.07167 18.4583 5.15067 18.6667 5.15 18.9C5.15 19.2333 5.025 19.5 4.775 19.7C4.525 19.9 4.23333 19.9583 3.9 19.875C2.76667 19.625 1.83333 19.0543 1.1 18.163C0.366667 17.2717 0 16.2173 0 15V5Z" fill="black"/>
</svg>
