<svg width="48" height="47" viewBox="0 0 48 47" fill="none" xmlns="http://www.w3.org/2000/svg">
<mask id="mask0_3235_33818" style="mask-type:alpha" maskUnits="userSpaceOnUse" x="0" y="0" width="48" height="47">
<rect width="48" height="47" fill="#D9D9D9"/>
</mask>
<g mask="url(#mask0_3235_33818)">
<g filter="url(#filter0_d_3235_33818)">
<circle cx="24" cy="24" r="20" fill="white"/>
</g>
<path d="M18 35C17.1667 35 16.4583 34.7083 15.875 34.125C15.2917 33.5417 15 32.8333 15 32C15 31.1667 15.2917 30.4583 15.875 29.875C16.4583 29.2917 17.1667 29 18 29C18.2333 29 18.45 29.025 18.65 29.075C18.85 29.125 19.0417 29.1917 19.225 29.275L20.65 27.5C20.1833 26.9833 19.8583 26.4 19.675 25.75C19.4917 25.1 19.45 24.45 19.55 23.8L17.525 23.125C17.2417 23.5417 16.8833 23.875 16.45 24.125C16.0167 24.375 15.5333 24.5 15 24.5C14.1667 24.5 13.4583 24.2083 12.875 23.625C12.2917 23.0417 12 22.3333 12 21.5C12 20.6667 12.2917 19.9583 12.875 19.375C13.4583 18.7917 14.1667 18.5 15 18.5C15.8333 18.5 16.5417 18.7917 17.125 19.375C17.7083 19.9583 18 20.6667 18 21.5V21.7L20.025 22.4C20.3583 21.8 20.8043 21.2917 21.363 20.875C21.9217 20.4583 22.5507 20.1917 23.25 20.075V17.9C22.6 17.7167 22.0623 17.3623 21.637 16.837C21.2117 16.3117 20.9993 15.6993 21 15C21 14.1667 21.2917 13.4583 21.875 12.875C22.4583 12.2917 23.1667 12 24 12C24.8333 12 25.5417 12.2917 26.125 12.875C26.7083 13.4583 27 14.1667 27 15C27 15.7 26.7833 16.3127 26.35 16.838C25.9167 17.3633 25.3833 17.7173 24.75 17.9V20.075C25.45 20.1917 26.0793 20.4583 26.638 20.875C27.1967 21.2917 27.6423 21.8 27.975 22.4L30 21.7V21.5C30 20.6667 30.2917 19.9583 30.875 19.375C31.4583 18.7917 32.1667 18.5 33 18.5C33.8333 18.5 34.5417 18.7917 35.125 19.375C35.7083 19.9583 36 20.6667 36 21.5C36 22.3333 35.7083 23.0417 35.125 23.625C34.5417 24.2083 33.8333 24.5 33 24.5C32.4667 24.5 31.979 24.375 31.537 24.125C31.095 23.875 30.741 23.5417 30.475 23.125L28.45 23.8C28.55 24.45 28.5083 25.096 28.325 25.738C28.1417 26.38 27.8167 26.9673 27.35 27.5L28.775 29.25C28.9583 29.1667 29.15 29.104 29.35 29.062C29.55 29.02 29.7667 28.9993 30 29C30.8333 29 31.5417 29.2917 32.125 29.875C32.7083 30.4583 33 31.1667 33 32C33 32.8333 32.7083 33.5417 32.125 34.125C31.5417 34.7083 30.8333 35 30 35C29.1667 35 28.4583 34.7083 27.875 34.125C27.2917 33.5417 27 32.8333 27 32C27 31.6667 27.0543 31.3457 27.163 31.037C27.2717 30.7283 27.4173 30.4493 27.6 30.2L26.175 28.425C25.4917 28.8083 24.7623 29 23.987 29C23.2117 29 22.4827 28.8083 21.8 28.425L20.4 30.2C20.5833 30.45 20.7293 30.7293 20.838 31.038C20.9467 31.3467 21.0007 31.6673 21 32C21 32.8333 20.7083 33.5417 20.125 34.125C19.5417 34.7083 18.8333 35 18 35Z" fill="black"/>
</g>
<defs>
<filter id="filter0_d_3235_33818" x="0" y="4" width="48" height="48" filterUnits="userSpaceOnUse" color-interpolation-filters="sRGB">
<feFlood flood-opacity="0" result="BackgroundImageFix"/>
<feColorMatrix in="SourceAlpha" type="matrix" values="0 0 0 0 0 0 0 0 0 0 0 0 0 0 0 0 0 0 127 0" result="hardAlpha"/>
<feOffset dy="4"/>
<feGaussianBlur stdDeviation="2"/>
<feComposite in2="hardAlpha" operator="out"/>
<feColorMatrix type="matrix" values="0 0 0 0 0 0 0 0 0 0 0 0 0 0 0 0 0 0 0.25 0"/>
<feBlend mode="normal" in2="BackgroundImageFix" result="effect1_dropShadow_3235_33818"/>
<feBlend mode="normal" in="SourceGraphic" in2="effect1_dropShadow_3235_33818" result="shape"/>
</filter>
</defs>
</svg>
